<?xml version="1.0" encoding="UTF-8" standalone="no"?>
<!-- Generator: Adobe Illustrator 23.0.2, SVG Export Plug-In . SVG Version: 6.00 Build 0)  -->

<svg
   version="1.1"
   id="Layer_1"
   x="0px"
   y="0px"
   viewBox="0 0 715.07 353.62"
   style="enable-background:new 0 0 715.07 353.62;"
   xml:space="preserve"
   sodipodi:docname="affm_light.svg"
   inkscape:version="1.3 (0e150ed6c4, 2023-07-21)"
   xmlns:inkscape="http://www.inkscape.org/namespaces/inkscape"
   xmlns:sodipodi="http://sodipodi.sourceforge.net/DTD/sodipodi-0.dtd"
   xmlns="http://www.w3.org/2000/svg"
   xmlns:svg="http://www.w3.org/2000/svg"><defs
   id="defs14" /><sodipodi:namedview
   id="namedview14"
   pagecolor="#ffffff"
   bordercolor="#000000"
   borderopacity="0.25"
   inkscape:showpageshadow="2"
   inkscape:pageopacity="0.0"
   inkscape:pagecheckerboard="0"
   inkscape:deskcolor="#d1d1d1"
   inkscape:zoom="1.1285608"
   inkscape:cx="357.535"
   inkscape:cy="176.77381"
   inkscape:window-width="1280"
   inkscape:window-height="737"
   inkscape:window-x="-8"
   inkscape:window-y="-8"
   inkscape:window-maximized="1"
   inkscape:current-layer="Layer_1" />&#10;<style
   type="text/css"
   id="style1">.st0 { fill:#131926; }&#10;.st1 { clip-path:url(#SVGID_2_); }&#10;.st2 { fill:#252D3E; }&#10;.st3 { fill:#009444; }&#10;.st4 { fill:#006838; }&#10;.st5 { fill:#39B54A; }&#10;.st6 { fill:#8DC63F; }&#10;</style>&#10;<g
   id="g14">&#10;	<g
   id="g4">&#10;		<path
   d="M272.5,225.87c5.56,1.64,11.12,3.28,17.55,5.17c-31.94,49.46-75.92,76.41-134.35,75.67    c-57.84-0.73-100.84-28.48-130.94-76.92c0.05-0.68,0.1-1.36,0.14-2.04c5.92-0.96,11.85-2.81,17.76-2.71    c16.44,0.27,32.99,0.28,49.26,2.32c40.59,5.1,76.89,20.18,106.41,49.43c3.47,3.44,6.54,7.27,10.07,11.22    c4.49-1.99,9.07-4.02,14.76-6.54c-49.71-47.06-109.37-60.59-174.58-57.58c25.93-2.67,51.76-2.22,77.52,1.76    c1.92,0.3,4.12,0.14,5.95-0.51c31.87-11.32,64.59-13.42,97.8-8.58c12.94,1.88,25.68,5.11,38.5,7.8c1.48,0.31,2.87,1.08,4.32,1.65    c-0.76,0.02-1.57,0.17-2.32,0.03c-10.54-1.98-20.99-4.55-31.61-5.89c-29.08-3.69-57.72-1.77-85.5,8.38    c-1.09,0.4-2.1,1.03-3.81,1.88c4.61,1.33,8.36,2.57,12.18,3.44c1.41,0.32,3.17,0.19,4.51-0.37c31.32-12.94,63.6-13.65,96.42-7.73    c4.17,0.75,8.33,1.62,13.74,2.69C274.25,227.05,273.37,226.46,272.5,225.87z M36.68,226.84c-0.05,0.4-0.09,0.8-0.14,1.2    c2.98,0,5.96-0.03,8.94,0c21.76,0.24,42.76,4.38,62.59,13.38c24.98,11.34,45.88,27.28,57.41,53.25c0.39,0.88,1.78,1.99,2.6,1.91    c6.18-0.54,12.33-1.36,19.43-2.2c-14.12-24.25-34.18-39.82-57.95-50.99C100.06,229.55,68.87,225.09,36.68,226.84z M36.25,230.23    c1.71,0.74,2.38,1.15,3.11,1.34c8.98,2.36,18.38,3.7,26.88,7.22c22.94,9.49,41.01,24.2,47.86,49.52c0.25,0.94,0.96,2.29,1.71,2.49    c7.41,1.92,14.87,3.64,22.67,5.5C134.59,262.3,74.34,223.38,36.25,230.23z M275.37,235.88c-0.26-0.61-0.51-1.21-0.77-1.82    c-23.92-0.87-46.21,3.55-65.37,20.25c4.94,3.14,9.42,5.98,12.54,7.96c4.11-3.45,7.75-6.49,11.37-9.55    c10.78-9.1,23.54-13.19,37.27-14.98C272.11,237.53,273.72,236.52,275.37,235.88z M277.42,231.77c-0.01-0.49-0.02-0.98-0.02-1.47    c-33.05-6.68-65.37-5.9-96.57,9.51c0.49,0.7,0.6,1.07,0.84,1.17c3.31,1.48,6.59,3.06,10,4.29c1.1,0.4,2.8,0.23,3.8-0.37    c22.21-13.42,46.45-16.43,71.74-14.17C270.6,231.03,274.01,231.42,277.42,231.77z M84.49,276.88c-4-17.83-25.38-37.61-43.43-40.41    C52.73,252.98,66.87,266.2,84.49,276.88z M248.57,263.24c0.3,0.31,0.61,0.61,0.91,0.92c4.8-5.18,9.6-10.36,14.85-16.02    C257.24,251.92,251.97,256.63,248.57,263.24z"
   id="path1"
   style="fill:#8dc63f;fill-opacity:1" />&#10;		<circle
   cx="93.22"
   cy="81.21"
   r="34.31"
   id="circle1"
   class="st6"
   style="fill:#8dc63f;fill-opacity:1" />&#10;		<circle
   cx="183.75"
   cy="81.21"
   r="34.31"
   id="circle2"
   style="fill:#8dc63f;fill-opacity:1" />&#10;		<circle
   cx="93.22"
   cy="167.21"
   r="34.31"
   id="circle3"
   style="fill:#8dc63f;fill-opacity:1" />&#10;		<circle
   cx="183.75"
   cy="167.21"
   r="34.31"
   id="circle4"
   style="fill:#8dc63f;fill-opacity:1" />&#10;	</g>&#10;	<g
   id="g13">&#10;		<path
   class="st0"
   d="M331.96,85.55h15.77l27.55,73.33h-15.26l-6.04-17.51h-28.27l-6.04,17.51h-15.26L331.96,85.55z M349.47,128.67    l-6.55-18.33l-2.66-8.91h-0.82l-2.66,8.91l-6.55,18.33H349.47z"
   id="path4" />&#10;		<path
   class="st0"
   d="M406.4,85.55h46.5v13.11h-32.67v17.82h29.39v13.11h-29.39v29.29H406.4V85.55z"
   id="path5" />&#10;		<path
   class="st0"
   d="M478.81,85.55h15.77l27.55,73.33h-15.26l-6.04-17.51h-28.27l-6.04,17.51h-15.26L478.81,85.55z M496.32,128.67    l-6.55-18.33l-2.66-8.91h-0.82l-2.66,8.91l-6.55,18.33H496.32z"
   id="path6" />&#10;		<path
   class="st0"
   d="M530.73,85.55h26.73c3.69,0,7.03,0.58,10.04,1.74c3,1.16,5.58,2.76,7.73,4.81c2.15,2.05,3.8,4.49,4.97,7.32    c1.16,2.83,1.74,5.92,1.74,9.27c0,2.46-0.41,4.76-1.23,6.91c-0.82,2.15-1.95,4.1-3.38,5.84c-1.43,1.74-3.11,3.28-5.02,4.61    c-1.91,1.33-3.93,2.37-6.04,3.12l-0.1,0.72l19.66,28.16v0.82h-15.87l-18.95-27.55h-6.45v27.55h-13.83V85.55z M557.36,118.63    c3.14,0,5.72-0.96,7.73-2.87c2.01-1.91,3.02-4.33,3.02-7.27c0-1.3-0.22-2.56-0.67-3.79c-0.45-1.23-1.11-2.32-2-3.28    c-0.89-0.96-2-1.72-3.33-2.3c-1.33-0.58-2.85-0.87-4.56-0.87h-13.01v20.38H557.36z"
   id="path7" />&#10;		<path
   class="st0"
   d="M594.22,85.55h13.62l22.43,38.81h0.82l22.43-38.81h13.72v73.33h-13.72v-36.15l0.82-12.29h-0.82l-18.64,32.87    h-8.29l-18.74-32.87h-0.82l0.82,12.29v36.15h-13.62V85.55z"
   id="path8" />&#10;		<path
   class="st0"
   d="M310.55,180.1h46.5v13.11h-32.67v17.82h29.39v13.11h-29.39v29.29h-13.83V180.1z"
   id="path9" />&#10;		<path
   class="st0"
   d="M401.39,255.06c-5.46,0-10.53-0.99-15.21-2.97c-4.68-1.98-8.72-4.69-12.14-8.14    c-3.42-3.45-6.09-7.51-8.04-12.19c-1.95-4.68-2.92-9.68-2.92-15s0.97-10.33,2.92-15c1.95-4.68,4.62-8.74,8.04-12.19    c3.41-3.45,7.46-6.16,12.14-8.14c4.68-1.98,9.75-2.97,15.21-2.97c5.46,0,10.53,0.99,15.21,2.97c4.67,1.98,8.72,4.69,12.13,8.14    c3.41,3.45,6.09,7.51,8.04,12.19c1.95,4.68,2.92,9.68,2.92,15s-0.97,10.33-2.92,15c-1.95,4.68-4.63,8.74-8.04,12.19    c-3.41,3.45-7.46,6.16-12.13,8.14C411.92,254.07,406.85,255.06,401.39,255.06z M401.39,241.95c3.41,0,6.61-0.62,9.58-1.84    s5.56-2.93,7.78-5.12c2.22-2.18,3.96-4.83,5.22-7.94c1.26-3.11,1.89-6.54,1.89-10.29c0-3.75-0.63-7.18-1.89-10.29    c-1.26-3.11-3-5.75-5.22-7.94c-2.22-2.18-4.81-3.89-7.78-5.12c-2.97-1.23-6.16-1.84-9.58-1.84c-3.42,0-6.61,0.61-9.58,1.84    c-2.97,1.23-5.57,2.94-7.78,5.12c-2.22,2.19-3.96,4.83-5.22,7.94c-1.26,3.11-1.89,6.54-1.89,10.29c0,3.76,0.63,7.19,1.89,10.29    c1.26,3.11,3,5.75,5.22,7.94c2.22,2.19,4.81,3.89,7.78,5.12C394.78,241.34,397.97,241.95,401.39,241.95z"
   id="path10" />&#10;		<path
   class="st0"
   d="M450.85,180.1h26.73c3.69,0,7.03,0.58,10.04,1.74c3,1.16,5.58,2.76,7.73,4.81c2.15,2.05,3.8,4.49,4.97,7.32    c1.16,2.83,1.74,5.92,1.74,9.27c0,2.46-0.41,4.76-1.23,6.91s-1.95,4.1-3.38,5.84c-1.43,1.74-3.11,3.28-5.02,4.61    c-1.91,1.33-3.93,2.37-6.04,3.12l-0.1,0.72l19.66,28.16v0.82h-15.87l-18.95-27.55h-6.45v27.55h-13.83V180.1z M477.48,213.17    c3.14,0,5.72-0.96,7.73-2.87c2.01-1.91,3.02-4.33,3.02-7.27c0-1.3-0.22-2.56-0.67-3.79c-0.45-1.23-1.11-2.32-2-3.28    c-0.89-0.96-2-1.72-3.33-2.3c-1.33-0.58-2.85-0.87-4.56-0.87h-13.01v20.38H477.48z"
   id="path11" />&#10;		<path
   class="st0"
   d="M536.88,180.1h13.62l22.43,38.81h0.82l22.43-38.81h13.72v73.33h-13.72v-36.15l0.82-12.29h-0.82l-18.64,32.87    h-8.29l-18.74-32.87h-0.82l0.82,12.29v36.15h-13.62V180.1z"
   id="path12" />&#10;		<path
   class="st0"
   d="M638.47,193.2v17h29.39v13.11h-29.39v17h32.67v13.11h-46.5V180.1h46.5v13.11H638.47z"
   id="path13" />&#10;	</g>&#10;</g>&#10;</svg>
